<?xml version="1.0" standalone="no"?>
<!DOCTYPE svg PUBLIC "-//W3C//DTD SVG 20010904//EN"
 "http://www.w3.org/TR/2001/REC-SVG-20010904/DTD/svg10.dtd">
<svg version="1.0" xmlns="http://www.w3.org/2000/svg"
 width="500.000000pt" height="500.000000pt" viewBox="0 0 500.000000 500.000000"
 preserveAspectRatio="xMidYMid meet">
<metadata>
Created by potrace 1.14, written by Peter Selinger 2001-2017
</metadata>
<g transform="translate(0.000000,500.000000) scale(0.100000,-0.100000)"
fill="#000000" stroke="none">
<path d="M2852 4359 c-28 -11 -53 -65 -81 -174 -65 -247 -83 -519 -55 -817 l7
-68 -37 0 c-67 0 -129 -47 -124 -95 3 -24 -2 -28 -46 -43 -37 -13 -53 -25 -67
-51 -31 -58 -99 -121 -131 -121 -45 0 -96 -26 -116 -60 -25 -40 -95 -100 -119
-100 -37 -1 -102 -39 -118 -70 -9 -17 -13 -35 -10 -41 10 -15 -35 -46 -75 -53
-48 -8 -78 -31 -88 -69 -8 -30 -10 -31 -54 -28 -40 2 -48 -1 -72 -29 -15 -18
-26 -44 -26 -61 0 -16 -13 -47 -29 -70 -16 -22 -33 -55 -36 -72 -4 -18 -9 -39
-11 -48 -11 -41 -465 -216 -919 -354 -240 -73 -376 -166 -440 -300 -16 -33
-41 -76 -57 -97 -16 -20 -40 -63 -55 -95 -24 -52 -27 -68 -25 -158 3 -148 20
-197 95 -271 246 -240 1114 -410 1918 -373 445 20 686 71 1149 244 267 99 492
172 786 254 206 58 481 147 724 235 59 22 87 50 105 105 8 25 21 66 30 90 12
34 19 113 27 320 10 281 8 461 -14 882 l-12 236 28 84 c21 63 28 106 29 169 2
104 -10 196 -28 213 -10 10 -15 74 -22 242 l-8 228 -55 19 c-168 59 -411 92
-486 68 -45 -15 -102 -52 -158 -104 -43 -40 -46 -42 -46 -23 0 26 -69 94 -127
125 -39 20 -154 56 -348 107 -338 88 -571 156 -670 196 -93 36 -106 39 -133
28z m76 -38 c11 -7 9 -16 -12 -48 -38 -56 -65 -134 -72 -202 l-6 -57 78 -41
c84 -43 159 -70 291 -103 113 -28 123 -27 123 11 0 65 71 279 92 279 5 0 116
-27 246 -61 261 -67 366 -109 405 -162 41 -54 41 -77 1 -132 -85 -119 -142
-262 -174 -442 -25 -138 -48 -198 -98 -246 -53 -52 -92 -64 -222 -72 l-115 -7
-82 41 c-115 58 -290 124 -473 177 -85 25 -155 46 -156 47 -1 1 -7 74 -13 163
-12 174 -3 383 25 542 20 116 61 271 80 299 15 24 56 31 82 14z m108 -118 l-7
-38 22 35 c32 50 35 21 4 -39 -28 -57 -50 -67 -43 -21 5 36 -5 39 -20 5 -6
-14 -17 -25 -23 -25 -12 0 -13 -2 24 68 33 62 52 69 43 15z m63 -44 c-20 -41
-34 -58 -41 -51 -13 13 37 112 57 112 12 0 8 -14 -16 -61z m61 31 c-12 -23 2
-27 20 -5 7 8 17 15 23 15 6 0 1 -10 -10 -22 -12 -13 -24 -38 -28 -55 -8 -41
-34 -45 -28 -5 3 26 3 26 -8 5 -11 -20 -39 -33 -39 -18 0 20 53 105 66 105 12
0 13 -4 4 -20z m115 -10 c-3 -5 -13 -10 -22 -10 -11 0 -14 -6 -9 -26 6 -21 4
-25 -8 -21 -19 8 -29 -21 -13 -37 7 -7 28 -12 47 -10 19 2 -49 -14 -151 -37
-214 -46 -239 -45 -239 15 0 23 9 45 25 63 l24 28 1 -31 c0 -47 36 -58 155
-49 52 4 93 10 92 14 -1 4 9 30 22 59 21 45 28 52 53 52 17 0 27 -4 23 -10z
m-495 -1027 c41 -8 118 -31 170 -49 107 -39 300 -130 300 -142 0 -5 -13 -21
-29 -36 l-28 -27 -79 51 c-93 58 -289 145 -421 186 -51 16 -93 32 -93 36 0 9
88 0 180 -19z m-138 -149 c169 -54 324 -127 391 -185 l48 -42 -41 -42 -42 -43
-76 55 c-98 70 -264 151 -412 199 -63 21 -117 40 -120 42 -10 7 66 61 87 62
11 0 86 -21 165 -46z m2131 -164 c-148 -143 -386 -299 -707 -466 -132 -69
-155 -77 -215 -81 -54 -3 -72 -1 -98 16 -30 19 -53 67 -53 113 0 28 31 111 52
141 11 16 18 31 15 34 -14 13 -141 -59 -190 -109 -67 -67 -102 -126 -123 -208
-57 -223 108 -340 361 -255 115 38 207 89 415 229 l185 124 3 -83 c4 -109 -14
-188 -84 -377 l-59 -156 -150 -50 c-82 -28 -278 -98 -435 -157 l-285 -106 -34
38 c-124 142 -282 378 -345 515 -37 81 -70 184 -62 197 3 4 27 11 54 14 70 8
154 40 208 79 25 18 77 74 114 123 118 159 181 204 353 251 273 75 323 100
378 184 l32 49 66 -33 c98 -50 195 -77 296 -83 75 -4 100 -2 148 15 69 25 176
99 209 145 l23 32 3 -30 c3 -26 -6 -39 -75 -105z m-2383 -20 c111 -30 218 -67
273 -93 l92 -44 -40 -17 c-21 -9 -46 -23 -55 -31 -13 -11 -23 -9 -74 22 -79
46 -197 94 -325 132 -57 17 -106 31 -109 31 -3 0 5 11 18 25 13 14 27 25 30
25 4 0 89 -22 190 -50z m-227 -149 c42 -11 110 -36 151 -55 76 -35 206 -115
206 -127 0 -3 -16 -18 -37 -32 l-36 -26 -41 28 c-65 45 -191 105 -316 151
-137 50 -134 48 -119 66 16 20 101 18 192 -5z m-182 -157 c83 -34 238 -119
266 -147 10 -10 6 -16 -21 -31 l-34 -18 -73 44 c-41 24 -127 73 -191 108 -180
96 -146 123 53 44z m-237 -135 c7 -6 -121 -79 -140 -79 -12 0 8 55 33 92 l26
38 36 -22 c20 -11 40 -25 45 -29z m114 -68 c37 -21 88 -50 113 -64 l46 -26
-10 -39 c-16 -58 -2 -102 54 -171 41 -52 49 -67 44 -90 -4 -21 2 -39 29 -77
82 -115 108 -156 121 -195 20 -56 19 -75 -6 -100 -33 -33 -106 -21 -231 38
-120 56 -92 54 -603 39 -469 -14 -793 21 -906 97 -45 30 -47 51 -8 88 49 45
154 91 379 164 279 91 522 188 725 289 94 46 174 85 178 85 5 1 39 -16 75 -38z
m3008 -528 c-8 -180 -16 -220 -54 -254 -31 -28 -156 -70 -651 -219 -167 -51
-415 -131 -550 -180 -792 -283 -1134 -355 -1681 -353 -431 1 -811 51 -1253
164 -266 68 -386 119 -484 204 -95 83 -118 185 -67 295 l25 55 19 -55 c34
-100 147 -177 368 -250 474 -155 1290 -157 2087 -4 302 58 431 99 980 304 367
137 467 171 975 334 129 41 244 82 255 90 11 9 24 16 29 16 5 0 6 -61 2 -147z"/>
</g>
</svg>
